<svg xmlns="http://www.w3.org/2000/svg" xml:space="preserve" width="55px" height="56px" version="1.1" style="shape-rendering:geometricPrecision; text-rendering:geometricPrecision; image-rendering:optimizeQuality; fill-rule:evenodd; clip-rule:evenodd"
viewBox="0 0 55 56.58"
 xmlns:xlink="http://www.w3.org/1999/xlink">
 <defs>
  <style type="text/css">
   <![CDATA[
    .fil0 {fill:#1D1F1F}
   ]]>
  </style>
 </defs>
 <g id="Layer_x0020_1">
  <metadata id="CorelCorpID_0Corel-Layer"/>
  <g id="_2191718576656">
   <path class="fil0" d="M27.5 0c5.02,0 9.13,3.93 9.41,8.88l-18.84 18.84 0 -18.29c0,-5.21 4.22,-9.43 9.43,-9.43z"/>
   <path class="fil0" d="M36.93 22.19l17.38 -17.38c0.92,-0.92 0.92,-2.41 0,-3.33 -0.92,-0.92 -2.41,-0.92 -3.33,0l-50.29 50.29c-0.92,0.92 -0.92,2.41 0,3.33 0.92,0.92 2.41,0.92 3.33,0l11.52 -11.52c2.72,2 6.02,3.12 9.6,3.46l0 7.18c0,1.3 1.06,2.36 2.36,2.36 1.3,0 2.36,-1.06 2.36,-2.36l0 -7.18c4.24,-0.4 8.09,-1.9 11.03,-4.65 3.51,-3.28 5.47,-8.07 5.47,-14.1 0,-1.3 -1.06,-2.36 -2.36,-2.36 -1.3,0 -2.36,1.06 -2.36,2.36 0,4.97 -1.58,8.43 -3.96,10.65 -2.41,2.25 -5.91,3.49 -10.18,3.49 -3.4,0 -6.31,-0.78 -8.57,-2.24l3.78 -3.78c1.4,0.83 3.04,1.31 4.79,1.31 5.21,0 9.43,-4.22 9.43,-9.43l0 -6.1z"/>
   <path class="fil0" d="M13.71 32.09c-0.23,-1.16 -0.35,-2.42 -0.35,-3.8 0,-1.3 -1.06,-2.36 -2.36,-2.36 -1.3,0 -2.36,1.06 -2.36,2.36 0,2.82 0.43,5.37 1.24,7.62l3.83 -3.82z"/>
  </g>
 </g>
</svg>